<?xml version="1.0" encoding="UTF-8"?>
<!DOCTYPE svg PUBLIC "-//W3C//DTD SVG 1.1//EN" "http://www.w3.org/Graphics/SVG/1.1/DTD/svg11.dtd">
<svg xmlns="http://www.w3.org/2000/svg" version="1.1" width="500px" height="500px" style="shape-rendering:geometricPrecision; text-rendering:geometricPrecision; image-rendering:optimizeQuality; fill-rule:evenodd; clip-rule:evenodd" xmlns:xlink="http://www.w3.org/1999/xlink">
<g><path style="opacity:1" fill="#818181" d="M 243.5,10.5 C 337.612,11.9586 409.112,52.6253 458,132.5C 486.133,185.562 494.466,241.562 483,300.5C 476.296,331.898 463.63,360.565 445,386.5C 381.403,469.491 297.903,501.324 194.5,482C 136.004,467.146 89.1709,435.313 54,386.5C 18.601,334.398 4.76765,277.565 12.5,216C 20.4829,165.202 42.1496,121.369 77.5,84.5C 122.742,37.5521 178.076,12.8854 243.5,10.5 Z"/></g>
<g><path style="opacity:1" fill="#fdfdfd" d="M 238.5,256.5 C 194.167,256.5 149.833,256.5 105.5,256.5C 105.198,259.059 105.532,261.393 106.5,263.5C 106.519,288.009 117.853,304.842 140.5,314C 154.615,317.625 168.615,317.292 182.5,313C 195.552,307.716 203.552,298.216 206.5,284.5C 216.167,284.5 225.833,284.5 235.5,284.5C 230.498,309.667 216.164,327.167 192.5,337C 171.601,342.62 150.601,342.953 129.5,338C 102.83,327.994 85.9962,309.161 79,281.5C 73.4318,260.128 73.4318,238.795 79,217.5C 91.3515,179.196 117.685,158.863 158,156.5C 197.896,158.733 223.23,179.067 234,217.5C 237.344,230.274 238.844,243.274 238.5,256.5 Z"/></g>
<g><path style="opacity:1" fill="#fdfdfd" d="M 282.5,341.5 C 270.322,341.828 258.322,341.495 246.5,340.5C 268.886,308.59 291.553,276.757 314.5,245C 293.633,216.113 272.633,187.279 251.5,158.5C 264.154,157.334 276.82,157.167 289.5,158C 303.944,179.443 318.777,200.61 334,221.5C 349.036,200.633 363.869,179.633 378.5,158.5C 390.82,157.334 403.153,157.167 415.5,158C 394.743,186.179 373.743,214.179 352.5,242C 376.361,275.028 400.027,308.194 423.5,341.5C 410.846,342.666 398.18,342.833 385.5,342C 368.338,316.679 351.004,291.512 333.5,266.5C 316.264,291.294 299.264,316.294 282.5,341.5 Z"/></g>
<g><path style="opacity:1" fill="#818181" d="M 151.5,182.5 C 179.51,181.909 197.677,194.909 206,221.5C 206.936,225.114 207.436,228.78 207.5,232.5C 173.833,232.5 140.167,232.5 106.5,232.5C 108.682,204.051 123.682,187.385 151.5,182.5 Z"/></g>
<g><path style="opacity:1" fill="#9c9c9c" d="M 238.5,256.5 C 194.67,257.499 150.67,257.832 106.5,257.5C 106.5,259.5 106.5,261.5 106.5,263.5C 105.532,261.393 105.198,259.059 105.5,256.5C 149.833,256.5 194.167,256.5 238.5,256.5 Z"/></g>
<g><path style="opacity:1" fill="#c1c1c1" d="M 246.5,340.5 C 258.322,341.495 270.322,341.828 282.5,341.5C 270.327,342.825 257.994,342.825 245.5,341.5C 245.624,340.893 245.957,340.56 246.5,340.5 Z"/></g>
</svg>
