<?xml version="1.0" encoding="UTF-8"?>
<!DOCTYPE svg PUBLIC "-//W3C//DTD SVG 1.1//EN" "http://www.w3.org/Graphics/SVG/1.1/DTD/svg11.dtd">
<svg xmlns="http://www.w3.org/2000/svg" version="1.1" width="512px" height="512px" style="shape-rendering:geometricPrecision; text-rendering:geometricPrecision; image-rendering:optimizeQuality; fill-rule:evenodd; clip-rule:evenodd" xmlns:xlink="http://www.w3.org/1999/xlink">
<g><path style="opacity:0.995" fill="#f1f1f1" d="M 232.5,-0.5 C 247.833,-0.5 263.167,-0.5 278.5,-0.5C 378.276,12.4544 449.442,64.4544 492,155.5C 497.478,168.434 501.645,181.767 504.5,195.5C 492.728,189.446 481.061,183.112 469.5,176.5C 450.833,187.167 432.167,197.833 413.5,208.5C 412.334,231.159 412.167,253.826 413,276.5C 431.915,287.374 450.749,298.374 469.5,309.5C 481.999,302.418 494.332,295.085 506.5,287.5C 487.749,276.374 468.915,265.374 450,254.5C 449.168,246.479 449.335,238.479 450.5,230.5C 456.997,227.086 463.33,223.419 469.5,219.5C 475.997,222.914 482.33,226.581 488.5,230.5C 489.332,238.479 489.832,246.479 490,254.5C 496.818,249.842 503.984,245.842 511.5,242.5C 511.5,254.167 511.5,265.833 511.5,277.5C 499.018,377.805 447.018,449.305 355.5,492C 330.313,502.297 304.313,508.797 277.5,511.5C 262.5,511.5 247.5,511.5 232.5,511.5C 132.727,498.549 61.5605,446.549 19,355.5C 9.71978,333.712 3.88644,311.046 1.5,287.5C 8.72016,283.639 15.8868,279.639 23,275.5C 23.1671,260.156 23.6671,244.822 24.5,229.5C 30.5,226.167 36.5,222.833 42.5,219.5C 48.5,222.833 54.5,226.167 60.5,229.5C 61.3329,244.822 61.8329,260.156 62,275.5C 74.8303,282.581 87.4969,289.914 100,297.5C 100.667,268.167 100.667,238.833 100,209.5C 80.9149,198.374 61.7482,187.374 42.5,176.5C 31.6698,182.414 21.0032,188.581 10.5,195C 8.97506,196.009 7.30839,196.509 5.5,196.5C 26.8109,116.699 74.4775,58.5324 148.5,22C 175.442,10.0999 203.442,2.59987 232.5,-0.5 Z"/></g>
<g><path style="opacity:1" fill="#9d9d9d" d="M 346.5,99.5 C 346.833,128.841 346.5,158.174 345.5,187.5C 344.893,187.376 344.56,187.043 344.5,186.5C 345.167,157.5 345.833,128.5 346.5,99.5 Z"/></g>
<g><path style="opacity:1" fill="#333333" d="M 346.5,99.5 C 359.052,106.027 371.552,112.693 384,119.5C 384.833,171.837 384.667,224.17 383.5,276.5C 364.336,287.247 345.336,298.247 326.5,309.5C 307.749,298.374 288.915,287.374 270,276.5C 269.333,254.167 269.333,231.833 270,209.5C 288.587,198.122 307.42,187.122 326.5,176.5C 332.527,179.845 338.527,183.179 344.5,186.5C 344.56,187.043 344.893,187.376 345.5,187.5C 346.5,158.174 346.833,128.841 346.5,99.5 Z"/></g>
<g><path style="opacity:1" fill="#343434" d="M 504.5,195.5 C 507.697,208.018 510.031,220.684 511.5,233.5C 511.5,236.5 511.5,239.5 511.5,242.5C 503.984,245.842 496.818,249.842 490,254.5C 489.832,246.479 489.332,238.479 488.5,230.5C 482.33,226.581 475.997,222.914 469.5,219.5C 463.33,223.419 456.997,227.086 450.5,230.5C 449.335,238.479 449.168,246.479 450,254.5C 468.915,265.374 487.749,276.374 506.5,287.5C 494.332,295.085 481.999,302.418 469.5,309.5C 450.749,298.374 431.915,287.374 413,276.5C 412.167,253.826 412.334,231.159 413.5,208.5C 432.167,197.833 450.833,187.167 469.5,176.5C 481.061,183.112 492.728,189.446 504.5,195.5 Z"/></g>
<g><path style="opacity:1" fill="#353535" d="M 1.5,287.5 C 0.833333,284.167 0.166667,280.833 -0.5,277.5C -0.5,262.833 -0.5,248.167 -0.5,233.5C 1.15293,221.245 3.15293,208.912 5.5,196.5C 7.30839,196.509 8.97506,196.009 10.5,195C 21.0032,188.581 31.6698,182.414 42.5,176.5C 61.7482,187.374 80.9149,198.374 100,209.5C 100.667,238.833 100.667,268.167 100,297.5C 87.4969,289.914 74.8303,282.581 62,275.5C 61.8329,260.156 61.3329,244.822 60.5,229.5C 54.5,226.167 48.5,222.833 42.5,219.5C 36.5,222.833 30.5,226.167 24.5,229.5C 23.6671,244.822 23.1671,260.156 23,275.5C 15.8868,279.639 8.72016,283.639 1.5,287.5 Z"/></g>
<g><path style="opacity:1" fill="#6da75d" d="M 186.5,177.5 C 197.916,199.291 210.249,220.957 223.5,242.5C 229.344,253.533 235.678,264.199 242.5,274.5C 241.969,276.624 240.635,278.124 238.5,279C 221.167,289 203.833,299 186.5,309C 184.86,309.348 183.527,308.848 182.5,307.5C 183.525,307.103 183.692,306.437 183,305.5C 171.155,285.139 159.322,264.806 147.5,244.5C 141.323,232.802 134.656,221.469 127.5,210.5C 145.979,198.331 165.146,186.997 185,176.5C 185.765,176.57 186.265,176.903 186.5,177.5 Z"/></g>
<g><path style="opacity:1" fill="#639d57" d="M 186.5,177.5 C 203.594,186.744 220.594,196.244 237.5,206C 239.692,207.067 241.358,208.567 242.5,210.5C 236.181,221.131 229.848,231.798 223.5,242.5C 210.249,220.957 197.916,199.291 186.5,177.5 Z"/></g>
<g><path style="opacity:1" fill="#54a243" d="M 127.5,210.5 C 134.656,221.469 141.323,232.802 147.5,244.5C 140.584,254.663 133.917,264.997 127.5,275.5C 127.5,253.833 127.5,232.167 127.5,210.5 Z"/></g>
<g><path style="opacity:1" fill="#3b8739" d="M 242.5,210.5 C 242.5,231.833 242.5,253.167 242.5,274.5C 235.678,264.199 229.344,253.533 223.5,242.5C 229.848,231.798 236.181,221.131 242.5,210.5 Z"/></g>
<g><path style="opacity:1" fill="#f0f0f0" d="M 325.5,220.5 C 332.351,223.51 338.851,227.176 345,231.5C 345.667,239.167 345.667,246.833 345,254.5C 339.036,258.232 332.869,261.565 326.5,264.5C 320.537,261.183 314.537,257.85 308.5,254.5C 307.335,246.855 307.169,239.188 308,231.5C 314.15,228.184 319.984,224.517 325.5,220.5 Z"/></g>
<g><path style="opacity:1" fill="#67a161" d="M 467.5,230.5 C 475.297,231.164 479.63,235.164 480.5,242.5C 480.333,244.833 480.167,247.167 480,249.5C 476.744,251.879 473.244,253.879 469.5,255.5C 465.871,253.7 462.371,251.7 459,249.5C 458.333,245.167 458.333,240.833 459,236.5C 461.988,234.601 464.821,232.601 467.5,230.5 Z"/></g>
<g><path style="opacity:1" fill="#3c873a" d="M 147.5,244.5 C 159.322,264.806 171.155,285.139 183,305.5C 183.692,306.437 183.525,307.103 182.5,307.5C 163.667,297.587 145.334,286.921 127.5,275.5C 133.917,264.997 140.584,254.663 147.5,244.5 Z"/></g>
<g><path style="opacity:1" fill="#68a162" d="M 228.5,397.5 C 229.497,379.341 229.83,361.008 229.5,342.5C 231.833,342.5 234.167,342.5 236.5,342.5C 236.667,362.836 236.5,383.169 236,403.5C 232.462,412.351 225.962,415.518 216.5,413C 209.393,409.401 202.393,405.567 195.5,401.5C 194.167,378.167 194.167,354.833 195.5,331.5C 214.764,320.619 233.931,309.619 253,298.5C 272.565,309.366 292.065,320.366 311.5,331.5C 312.666,354.493 312.833,377.493 312,400.5C 292.644,412.346 272.977,423.679 253,434.5C 245.101,430.133 237.268,425.633 229.5,421C 232.144,419.43 234.977,418.263 238,417.5C 243.342,419.755 248.509,422.422 253.5,425.5C 270.167,415.833 286.833,406.167 303.5,396.5C 304.833,376.5 304.833,356.5 303.5,336.5C 286.833,326.833 270.167,317.167 253.5,307.5C 236.833,317.167 220.167,326.833 203.5,336.5C 202.167,356.5 202.167,376.5 203.5,396.5C 208.772,400.13 214.438,402.797 220.5,404.5C 225.007,404.329 227.674,401.995 228.5,397.5 Z"/></g>
<g><path style="opacity:1" fill="#69a263" d="M 259.5,339.5 C 267.935,338.776 275.935,340.276 283.5,344C 287.856,347.878 290.189,352.711 290.5,358.5C 287.5,358.5 284.5,358.5 281.5,358.5C 280.93,354.088 278.597,350.922 274.5,349C 268.431,348.196 262.431,348.529 256.5,350C 251.828,352.64 251.495,355.64 255.5,359C 264.074,360.99 272.741,362.657 281.5,364C 293.843,369.523 295.843,377.69 287.5,388.5C 281.191,392.827 274.191,394.493 266.5,393.5C 252.534,395.204 244.534,389.204 242.5,375.5C 245.5,375.5 248.5,375.5 251.5,375.5C 251.6,381.25 254.6,384.416 260.5,385C 267.385,386.098 274.051,385.431 280.5,383C 283.059,379.925 283.059,376.925 280.5,374C 271.228,371.745 261.894,369.745 252.5,368C 246.457,366.08 243.79,361.913 244.5,355.5C 244.298,351.406 245.631,347.906 248.5,345C 251.99,342.588 255.657,340.755 259.5,339.5 Z"/></g>
<g><path style="opacity:1" fill="#7fae7a" d="M 236.5,342.5 C 234.167,342.5 231.833,342.5 229.5,342.5C 229.83,361.008 229.497,379.341 228.5,397.5C 228.5,378.833 228.5,360.167 228.5,341.5C 231.385,341.194 234.052,341.527 236.5,342.5 Z"/></g>
</svg>
