<?xml version="1.0" encoding="UTF-8"?>
<!DOCTYPE svg PUBLIC "-//W3C//DTD SVG 1.1//EN" "http://www.w3.org/Graphics/SVG/1.1/DTD/svg11.dtd">
<svg xmlns="http://www.w3.org/2000/svg" version="1.1" width="2545px" height="2565px" style="shape-rendering:geometricPrecision; text-rendering:geometricPrecision; image-rendering:optimizeQuality; fill-rule:evenodd; clip-rule:evenodd" xmlns:xlink="http://www.w3.org/1999/xlink">
<g><path style="opacity:0.993" fill="#020202" d="M -0.5,0.5 C -0.5,0.166667 -0.5,-0.166667 -0.5,-0.5C 0.833333,-0.5 2.16667,-0.5 3.5,-0.5C 850.289,239.869 1697.29,479.869 2544.5,719.5C 2544.5,720.167 2544.5,720.833 2544.5,721.5C 1911.17,1335.5 1278.17,1949.83 645.5,2564.5C 644.833,2564.5 644.167,2564.5 643.5,2564.5C 429.121,1709.65 214.455,854.985 -0.5,0.5 Z"/></g>
<g><path style="opacity:1" fill="#fefefe" d="M 41.5,42.5 C 232.994,96.0406 424.327,150.207 615.5,205C 472.971,343.863 330.137,482.363 187,620.5C 138.184,427.904 89.6843,235.237 41.5,42.5 Z"/></g>
<g><path style="opacity:1" fill="#fefefe" d="M 665.5,218.5 C 856.799,272.659 1048.13,326.826 1239.5,381C 1096.67,519.833 953.833,658.667 811,797.5C 761.402,604.773 712.902,411.773 665.5,218.5 Z"/></g>
<g><path style="opacity:1" fill="#fefefe" d="M 635.5,225.5 C 636.117,225.611 636.617,225.944 637,226.5C 685.488,419.119 733.655,611.785 781.5,804.5C 589.89,751.24 398.557,697.074 207.5,642C 350.366,503.299 493.033,364.466 635.5,225.5 Z"/></g>
<g><path style="opacity:1" fill="#fefefe" d="M 1289.5,395.5 C 1480.95,449.224 1672.29,503.391 1863.5,558C 1720.97,696.863 1578.14,835.363 1435,973.5C 1430.19,956.601 1425.52,939.601 1421,922.5C 1376.69,746.926 1332.86,571.259 1289.5,395.5 Z"/></g>
<g><path style="opacity:1" fill="#fefefe" d="M 1259.5,402.5 C 1260.12,402.611 1260.62,402.944 1261,403.5C 1309.49,596.119 1357.65,788.785 1405.5,981.5C 1213.73,927.633 1022.07,873.466 830.5,819C 974.004,680.663 1117,541.829 1259.5,402.5 Z"/></g>
<g><path style="opacity:1" fill="#fefefe" d="M 1912.5,571.5 C 2103.81,625.825 2295.14,680.158 2486.5,734.5C 2344.16,873.502 2201.5,1012.17 2058.5,1150.5C 2009.36,957.61 1960.69,764.61 1912.5,571.5 Z"/></g>
<g><path style="opacity:1" fill="#fefefe" d="M 1883.5,578.5 C 1932.76,770.853 1981.42,963.52 2029.5,1156.5C 2029.17,1157.17 2028.83,1157.83 2028.5,1158.5C 1843.26,1105.69 1657.93,1053.19 1472.5,1001C 1466.57,999.581 1460.91,997.581 1455.5,995C 1598.37,856.299 1741.03,717.466 1883.5,578.5 Z"/></g>
<g><path style="opacity:1" fill="#fefefe" d="M 198.5,670.5 C 390.276,724.455 581.943,778.788 773.5,833.5C 630.541,971.958 487.708,1110.62 345,1249.5C 296.01,1056.54 247.177,863.54 198.5,670.5 Z"/></g>
<g><path style="opacity:1" fill="#fefefe" d="M 823.5,847.5 C 1014.77,901.653 1206.1,955.82 1397.5,1010C 1254.65,1149.01 1111.65,1287.85 968.5,1426.5C 919.696,1233.62 871.363,1040.62 823.5,847.5 Z"/></g>
<g><path style="opacity:1" fill="#fefefe" d="M 793.5,854.5 C 843.234,1047.1 891.9,1240.1 939.5,1433.5C 747.875,1380.23 556.542,1326.07 365.5,1271C 508.366,1132.3 651.033,993.466 793.5,854.5 Z"/></g>
<g><path style="opacity:1" fill="#fefefe" d="M 1447.5,1024.5 C 1638.97,1078.36 1830.3,1132.53 2021.5,1187C 1878.35,1325.32 1735.35,1463.82 1592.5,1602.5C 1543.54,1409.98 1495.2,1217.31 1447.5,1024.5 Z"/></g>
<g><path style="opacity:1" fill="#fefefe" d="M 1417.5,1031.5 C 1467.23,1224.1 1515.9,1417.1 1563.5,1610.5C 1371.94,1556.78 1180.61,1502.45 989.5,1447.5C 1131.88,1308.45 1274.55,1169.78 1417.5,1031.5 Z"/></g>
<g><path style="opacity:1" fill="#fefefe" d="M 356.5,1299.5 C 547.887,1353.51 739.221,1407.85 930.5,1462.5C 788.164,1601.5 645.498,1740.17 502.5,1878.5C 453.984,1685.43 405.317,1492.43 356.5,1299.5 Z"/></g>
<g><path style="opacity:1" fill="#fefefe" d="M 980.5,1475.5 C 1172.05,1530.29 1363.72,1584.79 1555.5,1639C 1412.96,1778.05 1269.96,1916.55 1126.5,2054.5C 1077.67,1861.51 1029,1668.51 980.5,1475.5 Z"/></g>
<g><path style="opacity:1" fill="#fefefe" d="M 951.5,1483.5 C 1000.92,1676.18 1049.59,1869.18 1097.5,2062.5C 906.481,2008.83 715.481,1954.99 524.5,1901C 524.043,1900.59 523.709,1900.09 523.5,1899.5C 666.492,1761.18 809.158,1622.51 951.5,1483.5 Z"/></g>
<g><path style="opacity:1" fill="#fefefe" d="M 514.5,1929.5 C 514.735,1928.9 515.235,1928.57 516,1928.5C 707.091,1983.05 898.258,2037.22 1089.5,2091C 946.652,2230.01 803.652,2368.85 660.5,2507.5C 612.117,2314.63 563.45,2121.97 514.5,1929.5 Z"/></g>
</svg>
